<svg xmlns="http://www.w3.org/2000/svg" xmlns:xlink="http://www.w3.org/1999/xlink" width="700" zoomAndPan="magnify" viewBox="0 0 525 525.000007" height="700" preserveAspectRatio="xMidYMid meet" version="1.0"><defs><clipPath id="5db6751c26"><path d="M 94.75 94.25 L 430.109375 94.25 L 430.109375 429.609375 L 94.75 429.609375 Z M 94.75 94.25 " clip-rule="nonzero"/></clipPath></defs><g clip-path="url(#5db6751c26)"><path fill="#fe3131" d="M 262.5 94.25 C 169.867188 94.25 94.75 169.371094 94.75 262 C 94.75 354.632812 169.867188 429.75 262.5 429.75 C 355.132812 429.75 430.25 354.632812 430.25 262 C 430.25 169.371094 355.132812 94.25 262.5 94.25 Z M 262.5 94.25 " fill-opacity="1" fill-rule="nonzero"/></g><path fill="#ffffff" d="M 283.257812 192.5625 C 281.160156 189.855469 278.320312 188.503906 274.804688 188.503906 C 271.695312 188.503906 269.597656 189.113281 268.449219 190.261719 C 267.300781 191.480469 264.933594 194.589844 261.214844 199.796875 C 257.496094 204.933594 253.304688 209.601562 248.503906 213.792969 C 243.703125 217.984375 237.347656 221.90625 229.367188 225.691406 C 224.027344 228.195312 220.308594 230.222656 218.144531 231.84375 C 216.050781 233.398438 214.96875 235.902344 214.96875 239.28125 C 214.96875 242.191406 216.050781 244.757812 218.210938 246.992188 C 220.375 249.222656 222.808594 250.304688 225.582031 250.304688 C 231.398438 250.304688 242.6875 243.878906 259.457031 230.964844 L 259.457031 321.09375 C 259.457031 326.371094 260.675781 330.359375 263.109375 333.0625 C 265.542969 335.769531 268.789062 337.121094 272.84375 337.121094 C 281.90625 337.121094 286.433594 330.492188 286.433594 317.242188 L 286.433594 203.785156 C 286.433594 199.050781 285.351562 195.265625 283.257812 192.5625 " fill-opacity="1" fill-rule="nonzero"/></svg>