<svg xmlns="http://www.w3.org/2000/svg" xmlns:xlink="http://www.w3.org/1999/xlink" width="700" zoomAndPan="magnify" viewBox="0 0 525 525.000007" height="700" preserveAspectRatio="xMidYMid meet" version="1.0"><defs><clipPath id="a99947f941"><path d="M 94.75 94.25 L 430.109375 94.25 L 430.109375 429.609375 L 94.75 429.609375 Z M 94.75 94.25 " clip-rule="nonzero"/></clipPath></defs><g clip-path="url(#a99947f941)"><path fill="#fe3131" d="M 262.5 94.25 C 169.867188 94.25 94.75 169.371094 94.75 262 C 94.75 354.632812 169.867188 429.75 262.5 429.75 C 355.132812 429.75 430.25 354.632812 430.25 262 C 430.25 169.371094 355.132812 94.25 262.5 94.25 Z M 262.5 94.25 " fill-opacity="1" fill-rule="nonzero"/></g><path fill="#ffffff" d="M 310.980469 314.402344 C 308.273438 312.304688 304.351562 311.222656 299.214844 311.222656 L 247.488281 311.222656 C 249.113281 308.722656 250.734375 306.558594 252.359375 304.800781 C 256.078125 300.339844 262.90625 293.980469 272.777344 285.867188 C 282.714844 277.753906 289.816406 271.804688 294.007812 268.019531 C 298.199219 264.230469 302.390625 258.957031 306.449219 252.265625 C 310.507812 245.570312 312.535156 238.132812 312.535156 229.953125 C 312.535156 224.746094 311.585938 219.675781 309.625 214.875 C 307.667969 210.003906 304.960938 205.746094 301.445312 202.027344 C 297.929688 198.308594 293.871094 195.402344 289.273438 193.304688 C 282.175781 190.128906 273.519531 188.570312 263.445312 188.570312 C 255.0625 188.570312 247.761719 189.789062 241.539062 192.289062 C 235.320312 194.792969 230.179688 198.039062 226.054688 202.027344 C 222 206.082031 218.957031 210.546875 216.929688 215.480469 C 214.898438 220.417969 213.886719 225.21875 213.886719 229.75 C 213.886719 233.535156 214.96875 236.511719 217.128906 238.675781 C 219.292969 240.835938 222.066406 241.917969 225.378906 241.917969 C 229.167969 241.917969 232.003906 240.703125 233.964844 238.335938 C 235.925781 235.96875 237.683594 232.589844 239.242188 228.125 C 240.796875 223.730469 241.878906 221.027344 242.554688 220.011719 C 247.488281 212.441406 254.320312 208.652344 262.972656 208.652344 C 267.097656 208.652344 270.816406 209.601562 274.332031 211.425781 C 277.78125 213.25 280.554688 215.886719 282.582031 219.199219 C 284.609375 222.515625 285.625 226.300781 285.625 230.558594 C 285.625 234.480469 284.675781 238.402344 282.785156 242.527344 C 280.890625 246.652344 278.1875 250.574219 274.535156 254.429688 C 270.953125 258.28125 266.421875 262.136719 261.011719 265.988281 C 257.96875 268.019531 252.898438 272.347656 245.867188 278.835938 C 238.765625 285.328125 230.855469 293.171875 222.066406 302.230469 C 219.96875 304.460938 218.007812 307.574219 216.25 311.496094 C 214.492188 315.417969 213.546875 318.59375 213.546875 320.960938 C 213.546875 324.679688 214.96875 327.855469 217.738281 330.628906 C 220.511719 333.402344 224.367188 334.753906 229.300781 334.753906 L 302.1875 334.753906 C 306.515625 334.753906 309.828125 333.605469 311.925781 331.371094 C 314.089844 329.140625 315.171875 326.371094 315.171875 323.125 C 315.035156 319.40625 313.683594 316.496094 310.980469 314.402344 " fill-opacity="1" fill-rule="nonzero"/></svg>