<svg xmlns="http://www.w3.org/2000/svg" xmlns:xlink="http://www.w3.org/1999/xlink" width="700" zoomAndPan="magnify" viewBox="0 0 525 525.000007" height="700" preserveAspectRatio="xMidYMid meet" version="1.0"><defs><clipPath id="51bbc8b0ae"><path d="M 94.925781 94.425781 L 430.285156 94.425781 L 430.285156 429.785156 L 94.925781 429.785156 Z M 94.925781 94.425781 " clip-rule="nonzero"/></clipPath></defs><g clip-path="url(#51bbc8b0ae)"><path fill="#fe3131" d="M 262.496094 94.425781 C 169.964844 94.425781 94.925781 169.464844 94.925781 261.996094 C 94.925781 354.527344 169.964844 429.566406 262.496094 429.566406 C 355.027344 429.566406 430.0625 354.527344 430.0625 261.996094 C 430.0625 169.464844 355.027344 94.425781 262.496094 94.425781 Z M 262.496094 94.425781 " fill-opacity="1" fill-rule="nonzero"/></g><path fill="#ffffff" d="M 310.855469 276.585938 C 309.097656 272.261719 306.394531 268.34375 302.882812 264.765625 C 299.371094 261.183594 295.050781 258.011719 289.847656 255.242188 C 295.183594 250.785156 299.304688 246.125 302.140625 241.460938 C 304.976562 236.734375 306.464844 231.0625 306.464844 224.511719 C 306.464844 219.511719 305.449219 214.785156 303.492188 210.460938 C 301.53125 206.140625 298.5625 202.289062 294.710938 198.980469 C 290.792969 195.671875 286.269531 193.171875 280.933594 191.414062 C 275.664062 189.660156 269.789062 188.78125 263.441406 188.78125 C 256.144531 188.78125 249.457031 189.792969 243.582031 191.886719 C 237.707031 193.980469 232.707031 196.75 228.722656 200.128906 C 224.738281 203.574219 221.699219 207.152344 219.605469 210.933594 C 217.511719 214.714844 216.5 218.363281 216.5 221.742188 C 216.5 225.320312 217.578125 228.15625 219.808594 230.320312 C 222.039062 232.480469 224.46875 233.558594 227.101562 233.558594 C 229.332031 233.558594 231.289062 233.15625 233.046875 232.34375 C 234.734375 231.535156 235.949219 230.453125 236.625 229.101562 C 237.773438 226.535156 238.988281 223.765625 240.339844 220.863281 C 241.691406 217.957031 243.109375 215.59375 244.664062 213.769531 C 246.148438 211.949219 248.242188 210.460938 250.878906 209.3125 C 253.511719 208.164062 256.820312 207.625 260.804688 207.625 C 266.75 207.625 271.476562 209.449219 274.921875 213.09375 C 278.433594 216.742188 280.191406 221.132812 280.191406 226.199219 C 280.191406 232.886719 278.027344 237.949219 273.636719 241.53125 C 269.25 245.109375 264.046875 246.867188 257.96875 246.867188 L 253.917969 246.867188 C 249.257812 246.867188 245.675781 247.8125 243.3125 249.769531 C 240.949219 251.730469 239.734375 254.296875 239.734375 257.46875 C 239.734375 260.710938 240.746094 263.210938 242.703125 265.035156 C 244.664062 266.859375 247.5 267.738281 251.148438 267.738281 C 251.957031 267.738281 253.714844 267.601562 256.484375 267.332031 C 259.253906 267.0625 261.277344 266.925781 262.628906 266.925781 C 270.125 266.925781 276.003906 269.085938 280.257812 273.476562 C 284.445312 277.867188 286.605469 283.945312 286.605469 291.644531 C 286.605469 296.847656 285.390625 301.4375 282.890625 305.425781 C 280.394531 309.410156 277.285156 312.382812 273.503906 314.40625 C 269.722656 316.433594 265.738281 317.445312 261.683594 317.445312 C 254.59375 317.445312 249.054688 315.21875 245.136719 310.761719 C 241.21875 306.300781 237.503906 299.480469 234.128906 290.363281 C 233.585938 288.875 232.507812 287.527344 230.75 286.445312 C 229.0625 285.363281 227.238281 284.824219 225.414062 284.824219 C 221.699219 284.824219 218.660156 285.972656 216.160156 288.335938 C 213.664062 290.699219 212.445312 293.738281 212.445312 297.589844 C 212.445312 300.5625 213.460938 304.34375 215.554688 308.867188 C 217.648438 313.394531 220.6875 317.851562 224.738281 322.105469 C 228.792969 326.363281 233.925781 329.875 240.207031 332.710938 C 246.488281 335.546875 253.578125 336.964844 261.480469 336.964844 C 269.25 336.964844 276.339844 335.75 282.824219 333.25 C 289.308594 330.753906 294.777344 327.375 299.507812 322.984375 C 304.167969 318.59375 307.746094 313.597656 310.109375 307.992188 C 312.542969 302.386719 313.691406 296.578125 313.691406 290.566406 C 313.488281 285.566406 312.609375 280.90625 310.855469 276.585938 " fill-opacity="1" fill-rule="nonzero"/></svg>