<svg xmlns="http://www.w3.org/2000/svg" xmlns:xlink="http://www.w3.org/1999/xlink" width="700" zoomAndPan="magnify" viewBox="0 0 525 525.000007" height="700" preserveAspectRatio="xMidYMid meet" version="1.0"><defs><clipPath id="fa26e3c4ac"><path d="M 94.925781 94.425781 L 430.285156 94.425781 L 430.285156 429.785156 L 94.925781 429.785156 Z M 94.925781 94.425781 " clip-rule="nonzero"/></clipPath></defs><g clip-path="url(#fa26e3c4ac)"><path fill="#fe3131" d="M 262.496094 94.425781 C 169.964844 94.425781 94.925781 169.464844 94.925781 261.996094 C 94.925781 354.527344 169.964844 429.566406 262.496094 429.566406 C 355.027344 429.566406 430.0625 354.527344 430.0625 261.996094 C 430.0625 169.464844 355.027344 94.425781 262.496094 94.425781 Z M 262.496094 94.425781 " fill-opacity="1" fill-rule="nonzero"/></g><path fill="#ffffff" d="M 314.433594 283.472656 C 311.394531 282.054688 307.273438 281.378906 302.207031 281.378906 L 297.953125 281.378906 L 297.953125 204.855469 C 297.953125 193.375 292.957031 187.632812 282.890625 187.632812 C 279.785156 187.632812 277.152344 188.644531 274.921875 190.738281 C 272.691406 192.832031 269.925781 196.144531 266.480469 200.804688 L 214.066406 270.976562 C 212.648438 272.871094 211.367188 274.492188 210.421875 275.839844 C 209.40625 277.191406 208.460938 278.542969 207.582031 279.960938 C 206.636719 281.378906 205.960938 282.730469 205.488281 284.015625 C 205.015625 285.296875 204.8125 286.582031 204.8125 287.796875 C 204.8125 292.660156 206.367188 296.507812 209.542969 299.34375 C 212.648438 302.183594 217.375 303.601562 223.660156 303.601562 L 273.300781 303.601562 L 273.300781 321.972656 C 273.300781 326.902344 274.449219 330.683594 276.746094 333.183594 C 279.042969 335.683594 282.015625 336.964844 285.726562 336.964844 C 289.511719 336.964844 292.484375 335.75 294.710938 333.25 C 296.941406 330.753906 298.089844 326.96875 298.089844 321.90625 L 298.089844 303.53125 L 304.101562 303.53125 C 309.097656 303.53125 312.878906 302.65625 315.378906 300.898438 C 317.878906 299.144531 319.160156 296.375 319.160156 292.523438 C 319.027344 287.929688 317.472656 284.890625 314.433594 283.472656 M 273.234375 281.378906 L 230.683594 281.378906 L 273.234375 223.902344 Z M 273.234375 281.378906 " fill-opacity="1" fill-rule="nonzero"/></svg>