<svg xmlns="http://www.w3.org/2000/svg" xmlns:xlink="http://www.w3.org/1999/xlink" width="700" zoomAndPan="magnify" viewBox="0 0 525 525.000007" height="700" preserveAspectRatio="xMidYMid meet" version="1.0"><defs><clipPath id="0d15704112"><path d="M 94.75 94.25 L 430.109375 94.25 L 430.109375 429.609375 L 94.75 429.609375 Z M 94.75 94.25 " clip-rule="nonzero"/></clipPath></defs><g clip-path="url(#0d15704112)"><path fill="#fe3131" d="M 262.5 94.25 C 169.867188 94.25 94.75 169.371094 94.75 262 C 94.75 354.632812 169.867188 429.75 262.5 429.75 C 355.132812 429.75 430.25 354.632812 430.25 262 C 430.25 169.371094 355.132812 94.25 262.5 94.25 Z M 262.5 94.25 " fill-opacity="1" fill-rule="nonzero"/></g><path fill="#ffffff" d="M 311.453125 266.800781 C 309.085938 261.054688 305.839844 256.117188 301.648438 251.925781 C 297.457031 247.734375 292.65625 244.421875 287.113281 242.054688 C 281.566406 239.6875 275.683594 238.472656 269.328125 238.472656 C 261.417969 238.472656 252.761719 240.972656 243.363281 245.976562 L 248.976562 213.859375 L 296.035156 213.859375 C 300.90625 213.859375 304.625 212.777344 307.125 210.679688 C 309.625 208.585938 310.910156 205.8125 310.910156 202.363281 C 310.910156 194.523438 305.773438 190.601562 295.429688 190.601562 L 243.164062 190.601562 C 237.484375 190.601562 233.359375 191.886719 230.855469 194.453125 C 228.355469 197.023438 226.597656 201.148438 225.71875 206.828125 L 217.402344 254.292969 C 216.65625 258.484375 216.320312 260.714844 216.320312 261.054688 C 216.320312 264.027344 217.605469 266.667969 220.105469 269.03125 C 222.609375 271.398438 225.515625 272.546875 228.691406 272.546875 C 231.667969 272.546875 235.453125 270.789062 240.050781 267.34375 C 244.648438 263.894531 248.164062 261.460938 250.601562 260.039062 C 253.035156 258.621094 257.089844 257.945312 262.769531 257.945312 C 267.367188 257.945312 271.558594 259.027344 275.347656 261.257812 C 279.132812 263.488281 282.109375 266.800781 284.339844 271.332031 C 286.570312 275.792969 287.71875 281.203125 287.71875 287.558594 C 287.71875 293.441406 286.707031 298.714844 284.609375 303.3125 C 282.511719 307.910156 279.605469 311.5625 275.753906 314.199219 C 271.898438 316.835938 267.4375 318.1875 262.363281 318.1875 C 256.820312 318.1875 251.816406 316.566406 247.285156 313.253906 C 242.824219 310.007812 239.242188 305.410156 236.605469 299.527344 C 233.898438 293.101562 229.773438 289.925781 224.230469 289.925781 C 220.984375 289.925781 218.28125 291.074219 216.183594 293.375 C 214.019531 295.671875 212.9375 298.105469 212.9375 300.675781 C 212.9375 304.9375 214.492188 309.804688 217.535156 315.484375 C 220.578125 321.164062 225.851562 326.097656 233.15625 330.492188 C 240.523438 334.820312 250.125 337.050781 261.957031 337.050781 C 272.507812 337.050781 281.835938 334.753906 289.953125 330.089844 C 298.066406 325.492188 304.21875 319.203125 308.546875 311.359375 C 312.804688 303.515625 314.96875 294.792969 314.96875 285.191406 C 315.035156 278.703125 313.886719 272.546875 311.453125 266.800781 " fill-opacity="1" fill-rule="nonzero"/></svg>